# xmcd CD database file
#
# Track frame offsets:
#	150
#	21223
#	49874
#	83147
#	114320
#	150221
#	171720
#	208041
#
# Disc length: 3010 seconds
#
# Revision: 1
# Processed by: cddbd v1.5.2PL0 Copyright (c) Steve Scherf et al.
# Submitted via: CDex 1.70beta2
#
DISCID=600bc008
DTITLE=Myriam Alter - Where Is There
DYEAR=2007
DGENRE=Jazz
TTITLE0=Was It There
TTITLE1=Still In Love
TTITLE2=Come With Me
TTITLE3=In Sicily
TTITLE4=I'm Telling You
TTITLE5=It Could Be There
TTITLE6=September 11
TTITLE7=Catch Me There
EXTD=YEAR: 2007
EXTT0=
EXTT1=
EXTT2=
EXTT3=
EXTT4=
EXTT5=
EXTT6=
EXTT7=
PLAYORDER=
